HIERARCHY
ROOT Hips
{
	OFFSET 0.000000 121.760803 0.000000
	CHANNELS 6 Xposition Yposition Zposition Xrotation Yrotation Zrotation 
	JOINT Spine
	{
		OFFSET 0.072000 7.257294 -0.789700
		CHANNELS 3 Xrotation Yrotation Zrotation
		JOINT Spine1
		{
			OFFSET 0.000000 12.508769 -0.658067
			CHANNELS 3 Xrotation Yrotation Zrotation
			JOINT Spine1_split
			{
				OFFSET 0.000000 12.508769 -0.658067
				CHANNELS 3 Xrotation Yrotation Zrotation
				JOINT Spine2
				{
					OFFSET 0.000000 12.508769 -0.658067
					CHANNELS 3 Xrotation Yrotation Zrotation
					JOINT Neck
					{
						OFFSET 0.000000 14.033295 7.520400
						CHANNELS 3 Xrotation Yrotation Zrotation
						JOINT Head
						{
							OFFSET 0.000000 8.198502 5.703100
							CHANNELS 3 Xrotation Yrotation Zrotation
							JOINT HeadTop_End
							{
								OFFSET 0.000000 17.760803 13.332701
								CHANNELS 3 Xrotation Yrotation Zrotation
								End Site
								{
									OFFSET 0.000000 0.000000 0.000000
								}
							}
						}
					}
					JOINT LeftShoulder
					{
						OFFSET 6.292450 5.785301 -0.669000
						CHANNELS 3 Xrotation Yrotation Zrotation
						JOINT LeftShoulder_split
						{
							OFFSET 6.292450 5.785301 -0.669000
							CHANNELS 3 Xrotation Yrotation Zrotation
							JOINT LeftArm
							{
								OFFSET 13.907140 -6.093903 1.965100
								CHANNELS 3 Xrotation Yrotation Zrotation
								JOINT LeftForeArm
								{
									OFFSET 34.140198 0.000000 0.000000
									CHANNELS 3 Xrotation Yrotation Zrotation
									JOINT LeftHand
									{
										OFFSET 40.960209 0.000000 0.000000
										CHANNELS 3 Xrotation Yrotation Zrotation
										JOINT LeftHandThumb1
										{
											OFFSET 10.006996 -7.170425 9.573125
											CHANNELS 3 Xrotation Yrotation Zrotation
											JOINT LeftHandThumb2
											{
												OFFSET 1.835007 -1.059448 1.059443
												CHANNELS 3 Xrotation Yrotation Zrotation
												JOINT LeftHandThumb3
												{
													OFFSET 2.112267 -1.219513 1.219518
													CHANNELS 3 Xrotation Yrotation Zrotation
													JOINT LeftHandThumb4
													{
														OFFSET 4.843811 -2.796570 2.796576
														CHANNELS 3 Xrotation Yrotation Zrotation
														End Site
														{
															OFFSET 0.000000 0.000000 0.000000
														}
													}
												}
											}
										}
										JOINT LeftHandIndex1
										{
											OFFSET 18.389847 -0.922348 4.596882
											CHANNELS 3 Xrotation Yrotation Zrotation
											JOINT LeftHandIndex2
											{
												OFFSET 4.711273 0.000000 0.000000
												CHANNELS 3 Xrotation Yrotation Zrotation
												JOINT LeftHandIndex3
												{
													OFFSET 2.886131 0.000000 0.000000
													CHANNELS 3 Xrotation Yrotation Zrotation
													JOINT LeftHandIndex4
													{
														OFFSET 6.145912 0.000000 0.000000
														CHANNELS 3 Xrotation Yrotation Zrotation
														End Site
														{
															OFFSET 0.000000 0.000000 0.000000
														}
													}
												}
											}
										}
										JOINT LeftHandMiddle1
										{
											OFFSET 18.013008 0.000000 0.000000
											CHANNELS 3 Xrotation Yrotation Zrotation
											JOINT LeftHandMiddle2
											{
												OFFSET 4.946693 0.000000 0.000000
												CHANNELS 3 Xrotation Yrotation Zrotation
												JOINT LeftHandMiddle3
												{
													OFFSET 3.342232 0.000000 0.000000
													CHANNELS 3 Xrotation Yrotation Zrotation
													JOINT LeftHandMiddle4
													{
														OFFSET 4.461754 0.000000 0.000000
														CHANNELS 3 Xrotation Yrotation Zrotation
														End Site
														{
															OFFSET 0.000000 0.000000 0.000000
														}
													}
												}
											}
										}
										JOINT LeftHandRing1
										{
											OFFSET 15.849892 -0.102921 -4.126150
											CHANNELS 3 Xrotation Yrotation Zrotation
											JOINT LeftHandRing2
											{
												OFFSET 3.527054 0.000000 0.000000
												CHANNELS 3 Xrotation Yrotation Zrotation
												JOINT LeftHandRing3
												{
													OFFSET 2.961098 0.000000 0.000000
													CHANNELS 3 Xrotation Yrotation Zrotation
													JOINT LeftHandRing4
													{
														OFFSET 4.927200 0.000000 0.000000
														CHANNELS 3 Xrotation Yrotation Zrotation
														End Site
														{
															OFFSET 0.000000 0.000000 0.000000
														}
													}
												}
											}
										}
										JOINT LeftHandPinky1
										{
											OFFSET 12.791824 -0.832031 -6.799156
											CHANNELS 3 Xrotation Yrotation Zrotation
											JOINT LeftHandPinky2
											{
												OFFSET 3.327133 0.000000 0.000000
												CHANNELS 3 Xrotation Yrotation Zrotation
												JOINT LeftHandPinky3
												{
													OFFSET 3.014900 0.000000 0.000000
													CHANNELS 3 Xrotation Yrotation Zrotation
													JOINT LeftHandPinky4
													{
														OFFSET 5.847786 0.000000 0.000000
														CHANNELS 3 Xrotation Yrotation Zrotation
														End Site
														{
															OFFSET 0.000000 0.000000 0.000000
														}
													}
												}
											}
										}
									}
								}
							}
						}
					}
					JOINT RightShoulder
					{
						OFFSET -6.292450 5.785301 -0.669000
						CHANNELS 3 Xrotation Yrotation Zrotation
						JOINT RightShoulder_split
						{
							OFFSET -6.292450 5.785301 -0.669000
							CHANNELS 3 Xrotation Yrotation Zrotation
							JOINT RightArm
							{
								OFFSET -13.907140 -6.093903 1.965100
								CHANNELS 3 Xrotation Yrotation Zrotation
								JOINT RightForeArm
								{
									OFFSET -34.140198 0.000000 0.000000
									CHANNELS 3 Xrotation Yrotation Zrotation
									JOINT RightHand
									{
										OFFSET -40.960209 0.000000 0.000000
										CHANNELS 3 Xrotation Yrotation Zrotation
										JOINT RightHandThumb1
										{
											OFFSET -10.007050 -7.170456 9.573117
											CHANNELS 3 Xrotation Yrotation Zrotation
											JOINT RightHandThumb2
											{
												OFFSET -1.835007 -1.059448 1.059443
												CHANNELS 3 Xrotation Yrotation Zrotation
												JOINT RightHandThumb3
												{
													OFFSET -2.112267 -1.219513 1.219518
													CHANNELS 3 Xrotation Yrotation Zrotation
													JOINT RightHandThumb4
													{
														OFFSET -4.843834 -2.796585 2.796590
														CHANNELS 3 Xrotation Yrotation Zrotation
														End Site
														{
															OFFSET 0.000000 0.000000 0.000000
														}
													}
												}
											}
										}
										JOINT RightHandIndex1
										{
											OFFSET -18.389870 -0.922424 4.596786
											CHANNELS 3 Xrotation Yrotation Zrotation
											JOINT RightHandIndex2
											{
												OFFSET -4.711273 0.000000 0.000000
												CHANNELS 3 Xrotation Yrotation Zrotation
												JOINT RightHandIndex3
												{
													OFFSET -2.886131 0.000000 0.000000
													CHANNELS 3 Xrotation Yrotation Zrotation
													JOINT RightHandIndex4
													{
														OFFSET -6.145920 0.000000 0.000000
														CHANNELS 3 Xrotation Yrotation Zrotation
														End Site
														{
															OFFSET 0.000000 0.000000 0.000000
														}
													}
												}
											}
										}
										JOINT RightHandMiddle1
										{
											OFFSET -18.013008 0.000000 0.000000
											CHANNELS 3 Xrotation Yrotation Zrotation
											JOINT RightHandMiddle2
											{
												OFFSET -4.946693 0.000000 0.000000
												CHANNELS 3 Xrotation Yrotation Zrotation
												JOINT RightHandMiddle3
												{
													OFFSET -3.342232 0.000000 0.000000
													CHANNELS 3 Xrotation Yrotation Zrotation
													JOINT RightHandMiddle4
													{
														OFFSET -4.461754 0.000000 0.000000
														CHANNELS 3 Xrotation Yrotation Zrotation
														End Site
														{
															OFFSET 0.000000 0.000000 0.000000
														}
													}
												}
											}
										}
										JOINT RightHandRing1
										{
											OFFSET -15.849876 -0.102936 -4.126237
											CHANNELS 3 Xrotation Yrotation Zrotation
											JOINT RightHandRing2
											{
												OFFSET -3.527054 0.000000 0.000000
												CHANNELS 3 Xrotation Yrotation Zrotation
												JOINT RightHandRing3
												{
													OFFSET -2.961098 0.000000 0.000000
													CHANNELS 3 Xrotation Yrotation Zrotation
													JOINT RightHandRing4
													{
														OFFSET -4.927200 0.000000 0.000000
														CHANNELS 3 Xrotation Yrotation Zrotation
														End Site
														{
															OFFSET 0.000000 0.000000 0.000000
														}
													}
												}
											}
										}
										JOINT RightHandPinky1
										{
											OFFSET -12.791786 -0.832077 -6.799222
											CHANNELS 3 Xrotation Yrotation Zrotation
											JOINT RightHandPinky2
											{
												OFFSET -3.327133 0.000000 0.000000
												CHANNELS 3 Xrotation Yrotation Zrotation
												JOINT RightHandPinky3
												{
													OFFSET -3.014900 0.000000 0.000000
													CHANNELS 3 Xrotation Yrotation Zrotation
													JOINT RightHandPinky4
													{
														OFFSET -5.847786 0.000000 0.000000
														CHANNELS 3 Xrotation Yrotation Zrotation
														End Site
														{
															OFFSET 0.000000 0.000000 0.000000
														}
													}
												}
											}
										}
									}
								}
							}
						}
					}
				}
			}
		}
	}
	JOINT LeftUpLeg
	{
		OFFSET 13.026900 -6.336304 -1.092800
		CHANNELS 3 Xrotation Yrotation Zrotation
		JOINT LeftLeg
		{
			OFFSET 0.524474 -46.096886 9.782700
			CHANNELS 3 Xrotation Yrotation Zrotation
			JOINT LeftFoot
			{
				OFFSET -0.524474 -53.427422 -12.948200
				CHANNELS 3 Xrotation Yrotation Zrotation
				JOINT LeftToeBase
				{
					OFFSET 0.192200 -14.009700 16.364100
					CHANNELS 3 Xrotation Yrotation Zrotation
					JOINT LeftToe_End
					{
						OFFSET -1.784700 -0.561700 9.474800
						CHANNELS 3 Xrotation Yrotation Zrotation
						End Site
						{
							OFFSET 0.000000 0.000000 0.000000
						}
					}
				}
			}
		}
	}
	JOINT RightUpLeg
	{
		OFFSET -12.883000 -6.336304 -1.092800
		CHANNELS 3 Xrotation Yrotation Zrotation
		JOINT RightLeg
		{
			OFFSET -0.524587 -46.096825 9.782800
			CHANNELS 3 Xrotation Yrotation Zrotation
			JOINT RightFoot
			{
				OFFSET 0.524587 -53.427383 -12.948300
				CHANNELS 3 Xrotation Yrotation Zrotation
				JOINT RightToeBase
				{
					OFFSET -0.192200 -14.009700 16.364100
					CHANNELS 3 Xrotation Yrotation Zrotation
					JOINT RightToe_End
					{
						OFFSET 1.784700 -0.561700 9.474800
						CHANNELS 3 Xrotation Yrotation Zrotation
						End Site
						{
							OFFSET 0.000000 0.000000 0.000000
						}
					}
				}
			}
		}
	}
}
MOTION
Frames: 4
Frame Time: 0.016667
-7.968083 124.151909 223.763092 19.872459 9.222833 -1.288202 -2.292224 -1.005717 0.429982 -4.594411 -1.061328 0.101277 0.000000 0.000000 0.000000 -4.594411 -1.061325 0.101277 -4.837210 3.021063 -5.623375 -32.648284 -0.269690 4.329762 -0.000001 0.000000 0.000000 10.044625 0.256259 32.051216 0.000000 0.000000 0.000000 -48.561716 -10.210821 11.799408 -38.609881 -41.548509 -5.423216 -8.226033 -2.522790 4.213897 -23.472541 9.007637 3.988074 -11.828206 8.162179 13.621979 0.000002 0.000018 0.000007 0.000001 -0.000001 -0.000001 0.517246 -9.570582 -64.785492 -8.375122 -2.932952 -78.721571 -0.000003 -0.000005 -0.000002 0.000000 -0.000000 -0.000001 -5.938102 -5.207433 -62.769623 -4.744690 -4.396649 -66.090099 -0.000000 -0.000007 -0.000003 0.000000 0.000000 0.000001 -10.844896 5.489504 -65.803880 -0.072869 -6.647470 -74.360037 0.000004 0.000006 0.000001 -0.000000 -0.000000 0.000000 -15.557590 3.779188 -61.887757 0.800055 -8.229587 -69.702996 -0.000001 -0.000006 0.000002 0.000000 0.000001 -0.000002 -8.323178 -24.135442 -40.312675 0.000000 0.000000 0.000000 -89.460356 26.675454 38.968251 -28.899575 50.290867 -7.128705 27.282129 -4.258677 14.891576 -17.327353 6.468824 -26.575872 3.068477 -20.322328 1.170423 -0.000000 0.000004 0.000008 -0.000000 0.000003 0.000001 -7.162289 5.305829 74.913112 -5.538916 0.850715 81.608029 0.000001 0.000001 -0.000012 -0.000000 0.000000 0.000000 -11.692871 2.849402 77.860270 -5.590880 1.103046 82.945387 0.000001 -0.000003 -0.000004 -0.000001 -0.000000 -0.000000 -13.276871 -6.839415 73.034871 -0.147257 7.076627 77.106511 0.000003 0.000000 -0.000000 -0.000001 -0.000000 0.000001 -17.725133 -11.413756 72.297621 1.238877 11.805324 72.406002 0.000000 0.000001 0.000005 -0.000002 -0.000001 0.000001 -19.785183 9.085678 14.279306 48.928248 17.027858 -0.951539 15.962062 -0.961288 2.506200 -0.014934 -0.021874 0.065438 -0.000000 0.000000 0.000001 -59.898334 -27.822764 -11.055407 40.818607 1.445417 -13.140773 31.354011 2.102460 1.102729 -0.159066 2.742543 -0.470865 0.000004 -0.000000 0.000000 
-8.067961 121.759430 228.651291 17.736135 9.901309 -1.208271 -2.112010 -1.130117 0.179215 -4.226091 -1.236036 0.160241 0.000000 0.000000 0.000000 -4.226095 -1.236036 0.160240 -3.390465 3.136787 -5.040333 -32.061396 -0.495303 4.132349 -0.000001 0.000001 -0.000000 9.560695 1.178736 31.958595 0.000000 0.000000 0.000000 -47.982151 -11.494735 12.850402 -37.736194 -39.139569 -4.480686 -9.326629 -3.180901 7.039139 -23.461920 9.089821 3.969050 -11.828217 8.162140 13.621968 0.000002 0.000015 0.000006 -0.000001 0.000000 -0.000001 0.903541 -9.378172 -63.393369 -8.389066 -2.928299 -78.861200 -0.000003 -0.000004 0.000002 0.000000 -0.000000 0.000000 -5.628299 -5.175347 -61.630013 -4.775311 -4.405095 -66.429067 -0.000001 -0.000006 -0.000005 -0.000001 -0.000001 -0.000002 -10.813719 5.370620 -64.788442 -0.084336 -6.654563 -74.482789 0.000003 0.000005 0.000006 -0.000001 0.000000 -0.000002 -15.534565 3.805859 -61.859910 0.782680 -8.240937 -69.919718 -0.000001 -0.000005 0.000002 -0.000000 0.000002 -0.000001 -8.892184 -24.277769 -41.378235 0.000000 0.000000 0.000000 -86.632719 27.564755 36.099425 -30.016626 48.103588 -7.287907 26.156932 -4.467102 12.106720 -17.327348 6.468836 -26.575911 3.068480 -20.322342 1.170436 -0.000001 0.000002 0.000008 0.000001 0.000001 -0.000000 -7.160170 4.909972 76.768854 -5.512931 0.851716 81.188526 0.000002 0.000001 -0.000012 -0.000000 0.000000 0.000000 -11.756410 2.715995 78.851283 -5.590512 1.102829 82.959928 -0.000000 -0.000003 -0.000004 -0.000000 0.000000 -0.000000 -13.231565 -7.033028 74.164434 -0.159601 7.085937 77.218827 0.000003 0.000000 -0.000001 0.000001 0.000001 -0.000001 -17.608904 -11.756199 74.042871 1.242296 11.802461 72.382957 -0.000003 0.000002 0.000006 0.000000 -0.000001 -0.000001 -18.604512 7.335780 13.986318 47.988516 18.640269 -2.288599 15.072680 -1.366693 1.999589 -0.009419 -0.014153 0.065440 -0.000003 0.000003 0.000000 -60.965463 -27.243482 -11.390001 42.584160 1.176326 -13.436302 30.609056 1.194095 -0.134415 -0.181689 3.226705 -0.589682 0.000002 0.000000 0.000001 
-8.116433 119.184563 233.310898 15.561124 10.599729 -1.202432 -1.882300 -1.267336 0.017233 -3.758563 -1.458367 0.264353 0.000000 0.000000 0.000000 -3.758560 -1.458363 0.264353 -2.312996 3.118226 -4.492907 -31.180046 -0.574888 3.975778 -0.000000 -0.000001 -0.000000 9.718427 1.273663 32.721923 0.000000 0.000000 0.000000 -47.199841 -10.995447 14.448365 -37.509333 -36.402969 -3.708635 -10.609599 -4.159272 8.444640 -23.450758 9.176018 3.949042 -11.828229 8.162152 13.621996 0.000003 0.000019 0.000005 0.000000 -0.000000 -0.000000 1.276602 -9.117649 -62.457073 -8.382890 -2.929987 -78.798431 -0.000003 -0.000005 0.000002 -0.000000 -0.000000 -0.000001 -5.280009 -5.045766 -60.690814 -4.795415 -4.410530 -66.652449 -0.000001 -0.000007 -0.000001 0.000000 -0.000000 -0.000002 -10.792174 5.278063 -63.907020 -0.092876 -6.659752 -74.573494 0.000003 0.000004 0.000001 -0.000002 0.000000 0.000001 -15.475083 3.968999 -62.080648 0.761142 -8.254710 -70.188786 0.000002 -0.000005 0.000003 -0.000001 0.000000 0.000000 -8.350553 -23.530587 -42.083207 0.000000 0.000000 0.000000 -83.150088 28.065853 30.864604 -31.664347 45.607478 -6.457779 24.627316 -4.700908 9.780972 -17.327350 6.468805 -26.575911 3.068470 -20.322313 1.170427 0.000001 0.000003 0.000007 -0.000002 -0.000000 -0.000001 -7.022619 4.477197 78.237672 -5.477278 0.852854 80.617604 0.000001 0.000002 -0.000010 -0.000001 -0.000000 -0.000000 -11.748789 2.655326 79.261634 -5.590951 1.102372 83.000425 0.000001 -0.000003 -0.000004 -0.000000 -0.000000 -0.000000 -13.176020 -7.192350 75.017416 -0.177995 7.099705 77.385394 0.000001 0.000000 0.000000 -0.000001 0.000001 0.000001 -17.476386 -12.103208 75.594020 1.245860 11.799186 72.352112 0.000003 0.000002 0.000007 0.000001 0.000003 -0.000000 -18.574399 5.047273 13.526689 48.454503 19.748433 -3.549884 13.514194 -1.791155 0.868548 -0.005054 -0.008039 0.065441 -0.000000 -0.000000 -0.000001 -62.119963 -26.688430 -11.570067 45.056927 0.757745 -14.119058 29.443228 0.292504 -1.039493 0.199630 2.810055 -0.883492 -0.000000 -0.000000 0.000001 
-8.142124 117.784988 237.721924 13.433391 11.267289 -1.327073 -1.577174 -1.379657 0.017092 -3.141669 -1.730181 0.476075 0.000000 0.000000 0.000000 -3.141673 -1.730182 0.476075 -2.080886 2.816533 -4.488246 -29.703581 -0.759591 4.181482 0.000001 0.000000 -0.000001 10.358786 0.430480 33.938650 0.000000 0.000000 0.000000 -46.303034 -6.882812 15.495947 -38.881846 -37.359499 -3.729800 -11.776486 -3.759868 8.715735 -23.439374 9.263862 3.928529 -11.828234 8.162108 13.621959 0.000004 0.000015 0.000006 0.000001 -0.000001 -0.000000 1.545925 -8.908086 -61.901082 -8.376387 -2.931801 -78.732718 -0.000003 -0.000004 -0.000001 0.000000 -0.000001 0.000001 -5.021042 -4.932618 -60.084805 -4.812814 -4.415220 -66.846877 -0.000000 -0.000006 -0.000003 0.000001 -0.000001 -0.000002 -10.776106 5.182485 -63.138972 -0.100366 -6.664259 -74.651304 0.000005 0.000007 0.000003 -0.000002 -0.000000 -0.000003 -15.429570 4.090061 -62.244484 0.743171 -8.265978 -70.408506 -0.000001 -0.000006 0.000000 -0.000002 0.000000 0.000000 -7.764605 -22.718970 -42.791108 0.000000 0.000000 0.000000 -79.909757 26.708343 26.192526 -32.094717 45.832823 -5.888935 22.708547 -5.865416 8.746434 -17.327358 6.468838 -26.575899 3.068454 -20.322258 1.170417 -0.000003 0.000002 0.000007 0.000002 -0.000000 -0.000000 -6.865596 4.152961 79.210312 -5.445856 0.853589 80.114752 0.000002 0.000002 -0.000012 0.000001 0.000000 -0.000000 -11.662146 2.647367 79.130050 -5.594073 1.101175 83.123955 0.000003 -0.000003 -0.000003 0.000000 -0.000000 -0.000000 -13.125736 -7.256938 75.195021 -0.202096 7.117655 77.603428 0.000004 0.000001 -0.000002 0.000002 -0.000000 0.000000 -17.379293 -12.303815 76.241474 1.231304 11.811454 72.469359 -0.000002 -0.000001 0.000006 0.000001 -0.000000 -0.000001 -19.402675 4.419559 12.601685 47.587704 19.435163 -3.301861 12.382885 -2.112623 -0.055041 -0.005020 -0.003615 0.065448 0.000000 0.000002 0.000002 -61.776179 -26.525185 -11.839780 45.506207 0.163173 -13.974350 28.840737 0.089017 -2.545824 0.822773 1.703469 -0.939378 -0.000000 0.000000 -0.000001 
